<svg width="447" height="105" viewBox="0 0 447 105" fill="none" xmlns="http://www.w3.org/2000/svg">
<path fill-rule="evenodd" clip-rule="evenodd" d="M446.031 104.652L402.531 43.752L446.031 0.251953H362.031V104.652H446.031ZM367.581 78.702L398.631 47.652L435.381 99.102H367.581V78.702ZM222.881 50.8672L233.062 23.4014C233.501 22.1318 233.965 21.1064 234.453 20.3252C234.99 19.4951 236.04 19.0801 237.603 19.0801H245.366C246.782 19.0801 247.49 19.4951 247.49 20.3252C247.49 20.8623 247.222 21.7412 246.685 22.9619L218.633 89.0996C217.949 90.7598 217.168 92.0049 216.289 92.835C215.459 93.665 214.263 94.0801 212.7 94.0801H201.128C200.103 94.0801 199.248 93.9336 198.564 93.6406C197.881 93.2988 197.295 92.8838 196.807 92.3955C196.367 91.9072 196.001 91.3945 195.708 90.8574C195.415 90.2715 195.171 89.7344 194.976 89.2461L164.8 25.2324C164.36 24.3047 164.141 23.4502 164.141 22.6689C164.141 21.3994 164.604 20.4961 165.532 19.959C166.46 19.373 167.412 19.0801 168.389 19.0801H204.131C205.352 19.0801 206.377 19.1289 207.207 19.2266C208.037 19.3242 208.721 19.5195 209.258 19.8125C209.795 20.0566 210.234 20.374 210.576 20.7646C210.918 21.1553 211.211 21.6436 211.455 22.2295L222.881 50.8672ZM207.061 27.5029C206.426 25.9893 205.352 25.2324 203.838 25.2324H200.322L216.948 66.9072L219.805 59.29L207.061 27.5029ZM59.3989 53.7402L69.5796 26.2744C70.019 25.0049 70.4829 23.9795 70.9712 23.1982C71.5083 22.3682 72.5581 21.9531 74.1206 21.9531H81.8843C83.3003 21.9531 84.0083 22.3682 84.0083 23.1982C84.0083 23.7354 83.7397 24.6143 83.2026 25.835L55.1509 91.9727C54.4673 93.6328 53.686 94.8779 52.8071 95.708C51.9771 96.5381 50.7808 96.9531 49.2183 96.9531H37.646C36.6206 96.9531 35.7661 96.8066 35.0825 96.5137C34.3989 96.1719 33.813 95.7568 33.3247 95.2686C32.8853 94.7803 32.519 94.2676 32.2261 93.7305C31.9331 93.1445 31.689 92.6074 31.4937 92.1191L1.31787 28.1055C0.878418 27.1777 0.658691 26.3232 0.658691 25.542C0.658691 24.2725 1.12256 23.3691 2.05029 22.832C2.97803 22.2461 3.93018 21.9531 4.90674 21.9531H40.6489C41.8696 21.9531 42.895 22.002 43.7251 22.0996C44.5552 22.1973 45.2388 22.3926 45.7759 22.6855C46.313 22.9297 46.7524 23.2471 47.0942 23.6377C47.436 24.0283 47.729 24.5166 47.9731 25.1025L59.3989 53.7402ZM43.5786 30.376C42.9438 28.8623 41.8696 28.1055 40.356 28.1055H36.8403L53.4663 69.7803L56.3228 62.1631L43.5786 30.376ZM105.847 27.0721C105.283 27.4268 104.932 28.0395 104.912 28.7058L103.046 91.32C103.013 92.4474 103.918 93.3796 105.045 93.3796H139.068C140.172 93.3796 141.068 92.4842 141.068 91.3796V8.55595C141.068 6.98283 139.335 6.02553 138.003 6.8626L105.847 27.0721ZM111.719 36.9846C111.719 36.6848 111.59 36.389 111.325 36.2473C109.82 35.4404 107.879 36.5097 107.879 38.3298V73.4056C107.879 74.466 108.738 75.3256 109.799 75.3256C110.859 75.3256 111.719 74.466 111.719 73.4056V36.9846ZM267.512 47.9821C266.96 47.9821 266.511 47.5342 266.528 46.9822C266.657 42.8356 267.587 38.7429 269.275 34.9052C271.099 30.7593 273.773 26.9923 277.143 23.8191C280.514 20.646 284.515 18.129 288.919 16.4117C293.323 14.6944 298.043 13.8105 302.809 13.8105C307.576 13.8105 312.296 14.6944 316.7 16.4117C321.103 18.129 325.105 20.646 328.475 23.8192C331.846 26.9923 334.519 30.7593 336.343 34.9052C338.032 38.7429 338.962 42.8356 339.091 46.9822C339.108 47.5342 338.659 47.9821 338.106 47.9821L302.809 47.9821L267.512 47.9821ZM302.03 87.6309C302.03 88.1831 301.582 88.6326 301.03 88.6141C292.584 88.3315 284.538 84.4773 278.546 77.8139C272.53 71.124 269.06 62.1317 268.831 52.6995C268.817 52.1474 269.266 51.6995 269.818 51.6995H301.03C301.582 51.6995 302.03 52.1472 302.03 52.6995V87.6309Z" fill="white"/>
</svg>
