<svg width="150" height="150" viewBox="0 0 150 150" fill="none" xmlns="http://www.w3.org/2000/svg">
<path d="M60 120C68.28 120 75 113.28 75 105V90.0001H60C51.72 90.0001 45 96.7201 45 105C45 113.28 51.72 120 60 120Z" fill="#0ACF83"/>
<path d="M45 74.9998C45 66.7199 51.72 59.9999 60 59.9999H75V89.9998H60C51.72 89.9998 45 83.2798 45 74.9998Z" fill="#A259FF"/>
<path d="M45 45C45 36.72 51.72 30 60 30H75V60H60C51.72 60 45 53.28 45 45Z" fill="#F24E1E"/>
<path d="M75 30H90C98.28 30 105 36.72 105 45C105 53.28 98.28 60 90 60H75V30Z" fill="#FF7262"/>
<path d="M105 74.9998C105 83.2798 98.28 89.9998 90 89.9998C81.72 89.9998 75 83.2798 75 74.9998C75 66.7199 81.72 59.9999 90 59.9999C98.28 59.9999 105 66.7199 105 74.9998Z" fill="#1ABCFE"/>
</svg>
