<svg width="150" height="150" viewBox="0 0 150 150" fill="none" xmlns="http://www.w3.org/2000/svg">
<ellipse cx="75.5" cy="122" rx="39.5" ry="5" fill="#2C2C2C"/>
<path d="M70.6491 71.4294C69.9217 70.3912 66.1491 65.5335 61.6718 67.3615C56.0789 69.6572 56.3493 74.289 54.3607 77.0379C50.464 82.3887 37.0344 82.6817 32.0385 92.7063C27.0427 102.731 34.8264 112.03 41.0974 116.624C47.3684 121.218 58.6273 126.195 65.8601 119.791C72.8843 113.578 70.8291 105.599 73.4269 100.946C75.7969 96.7059 86.3865 89.1699 84.6173 83.7893C83.4439 80.2082 80.2549 82.7977 78.3367 81.8355C76.4185 80.8733 76.9241 78.5993 76.5902 77.6642C75.889 75.6625 70.6491 71.4294 70.6491 71.4294Z" fill="#FF3F3F"/>
<path opacity="0.1" d="M61.4838 95.9906L65.0314 90.7003C66.0101 90.7459 66.9864 90.5687 67.8867 90.1823C68.787 89.7958 69.5879 89.2101 70.229 88.4692C70.8055 87.6727 71.1829 86.7498 71.3297 85.7776C71.4765 84.8054 71.3885 83.8122 71.0729 82.881L71.9719 81.784C72.9873 82.3346 73.8238 83.1645 74.3823 84.1755C76.2697 87.4392 74.791 98.842 68.2745 100.465C63.1851 101.729 61.4838 95.9906 61.4838 95.9906Z" fill="black"/>
<path d="M70.3294 81.0012C71.1037 81.906 71.5925 83.02 71.7339 84.2025C71.8754 85.385 71.6632 86.5829 71.1242 87.6448C70.5852 88.7068 69.7435 89.5851 68.7055 90.169C67.6675 90.7528 66.4798 91.0158 65.2924 90.9249C64.1049 90.834 62.9711 90.3932 62.0341 89.6582C61.097 88.9232 60.3989 87.927 60.0278 86.7953C59.6567 85.6637 59.6293 84.4475 59.9491 83.3003C60.269 82.1532 60.9216 81.1265 61.8246 80.3501C63.0392 79.3097 64.6171 78.7939 66.2117 78.916C67.8063 79.0381 69.2873 79.788 70.3294 81.0012V81.0012Z" fill="#455A64"/>
<path d="M69.2261 81.9538C69.8146 82.6395 70.1867 83.4842 70.2952 84.3812C70.4037 85.2783 70.2438 86.1873 69.8357 86.9935C69.4276 87.7997 68.7896 88.4667 68.0024 88.9104C67.2152 89.354 66.3142 89.5542 65.4132 89.4858C64.5122 89.4174 63.6518 89.0834 62.9406 88.5259C62.2294 87.9685 61.6995 87.2128 61.4178 86.3542C61.1362 85.4957 61.1154 84.5729 61.3581 83.7025C61.6008 82.8321 62.0962 82.0533 62.7815 81.4644C63.2334 81.0661 63.7605 80.7624 64.3316 80.571C64.9027 80.3796 65.5064 80.3045 66.107 80.3501C66.7076 80.3958 67.293 80.5612 67.8287 80.8366C68.3644 81.112 68.8395 81.4919 69.2261 81.9538Z" fill="#263238"/>
<path d="M98.1743 36.3225L101.994 39.0998L71.6978 84.0379L64.7945 78.9935L98.1743 36.3225Z" fill="#FFAB6E"/>
<path d="M60.1432 100.69L52.1318 94.8459L50.5893 96.9605L58.6007 102.805L60.1432 100.69Z" fill="white"/>
<path d="M98.7078 32.4758L99.1117 31.8773L97.5125 30.7983L97.1087 31.3968L98.7078 32.4758Z" fill="#263238"/>
<path d="M98.6075 30.4832L97.4105 29.6755L96.0664 31.6675L97.2635 32.4752L98.6075 30.4832Z" fill="#263238"/>
<path d="M100.666 29.5939L101.07 28.9954L99.4708 27.9163L99.067 28.5148L100.666 29.5939Z" fill="#263238"/>
<path d="M100.555 27.6146L99.3584 26.8069L98.0143 28.7988L99.2113 29.6065L100.555 27.6146Z" fill="#263238"/>
<path d="M102.63 26.703L103.034 26.1045L101.435 25.0254L101.031 25.6239L102.63 26.703Z" fill="#263238"/>
<path d="M102.492 24.7495L101.295 23.9418L99.9513 25.9337L101.148 26.7414L102.492 24.7495Z" fill="#263238"/>
<path d="M106.517 39.118L107.022 38.6024L105.645 37.2519L105.139 37.7675L106.517 39.118Z" fill="#263238"/>
<path d="M105.416 39.1658L106.447 40.1766L108.129 38.4607L107.098 37.4498L105.416 39.1658Z" fill="#263238"/>
<path d="M108.929 36.555L109.434 36.0396L108.057 34.6886L107.552 35.204L108.929 36.555Z" fill="#263238"/>
<path d="M107.831 36.6635L108.862 37.6746L110.545 35.9589L109.514 34.9478L107.831 36.6635Z" fill="#263238"/>
<path d="M111.384 34.1008L111.89 33.5853L110.512 32.2346L110.007 32.7501L111.384 34.1008Z" fill="#263238"/>
<path d="M110.222 34.1831L111.253 35.194L112.935 33.478L111.904 32.4671L110.222 34.1831Z" fill="#263238"/>
<path d="M111.809 27.0936L107.777 23.8047C107.777 23.8047 106.557 24.9405 103.802 24.4218L97.4785 33.3643L97.3064 35.8099L102.15 39.6901L104.552 39.0421L112.041 31.0586C110.942 28.5257 111.809 27.0936 111.809 27.0936ZM100.4 35.0908L99.4357 34.3011L105.763 26.5503L106.727 27.3399L100.4 35.0908ZM103.205 37.3821L102.208 36.5321L108.536 28.7813L109.514 29.5779L103.205 37.3821Z" fill="#FF3F3F"/>
<path d="M51.5319 97.6871L58.209 88.8375L64.9222 80.0232L73.3696 69.0726L86.893 51.5181C91.4055 45.6689 94.3535 41.7902 98.9237 36.0047L98.5726 31.866L98.9738 36.0113C94.5439 41.9275 91.5773 45.7171 87.1048 51.648L73.6641 69.2695L65.1197 80.1461L58.3561 88.9181L51.5319 97.6871Z" fill="#263238"/>
<path d="M52.7789 98.5702L59.4267 89.6353L66.1638 80.7173L74.5487 69.5854C79.0106 63.6582 83.5228 57.7733 87.9917 51.8318C92.4605 45.8903 95.4298 42.0043 99.9563 36.1264L100.49 29.082L100.067 36.136C95.6412 42.0985 92.7219 45.9912 88.2317 51.94C83.7416 57.8889 79.3261 63.8121 74.8208 69.6826L66.3458 80.7262L59.601 89.5872L52.7789 98.5702Z" fill="#263238"/>
<path d="M103.033 26.1065L100.638 36.4766L88.9287 52.4399C84.5066 58.413 80.1205 64.4215 75.666 70.3701L67.3247 81.5943L60.6413 90.5296L53.9255 99.4402L60.5119 90.431L67.1343 81.4571L75.3858 70.1802C79.7899 64.1893 84.2731 58.2548 88.7096 52.2886L100.527 36.4313L103.033 26.1065Z" fill="#263238"/>
<path d="M55.1691 100.348L61.6798 91.2578L68.2227 82.1919L76.3155 70.731C80.6763 64.6836 85.1017 58.6854 89.4948 52.6626L101.164 36.6176L110.281 32.4284L101.218 36.7419L89.661 52.8678C85.2929 58.894 80.9501 64.9591 76.5427 70.975L68.4132 82.3292L61.8092 91.3564L55.1691 100.348Z" fill="#263238"/>
<path d="M108.073 35.1333L101.428 37.4216C97.1887 43.5107 94.4099 47.5339 90.1385 53.5984L77.2952 71.742L69.3985 83.1831L62.9622 92.2123L56.4509 101.231L62.8541 92.1063L69.2721 83.0238L77.1254 71.5261L89.9514 53.4361C94.2695 47.4033 97.0196 43.3661 101.381 37.3542L108.073 35.1333Z" fill="#263238"/>
<path d="M57.5912 102.08L63.8805 92.9698L70.2165 83.8917L77.8951 72.4064L90.6603 54.3134C94.9108 48.292 97.6289 44.2658 101.933 38.2617L105.911 37.8585L101.941 38.3187C97.7587 44.4001 95.0549 48.4333 90.8048 54.4904L78.1292 72.636L70.4175 84.0253L63.9886 93.0758L57.5912 102.08Z" fill="#263238"/>
</svg>
