<svg width="150" height="150" viewBox="0 0 150 150" fill="none" xmlns="http://www.w3.org/2000/svg">
<g clip-path="url(#clip0_202_353)">
<path d="M32.5 32.5H117.5V117.5H32.5V32.5Z" fill="#6762A5"/>
<path d="M80.695 99.4766V72.705C80.695 72.705 82.4358 66.2994 59.2444 75.3264C59.2036 75.442 59.2036 50.5676 59.2036 50.5676L66.7822 50.52V66.4558C66.7822 66.4558 87.9982 58.0986 87.9982 72.7934V99.4766H80.695ZM85.013 60.1658H76.9754C79.8688 56.6298 82.4868 50.5676 82.4868 50.5676H90.7964C90.7998 50.5676 89.3752 54.5184 85.013 60.1658ZM59.3396 99.4324V84.1868L66.9624 91.8096L59.3396 99.4324Z" fill="white"/>
</g>
<defs>
<clipPath id="clip0_202_353">
<rect x="32.5" y="32.5" width="85" height="85" rx="5" fill="white"/>
</clipPath>
</defs>
</svg>
