<svg width="151" height="150" viewBox="0 0 151 150" fill="none" xmlns="http://www.w3.org/2000/svg">
<path d="M75.1871 25.2731L77.8557 30.2852C78.4556 31.2101 79.1056 32.0288 79.8712 32.7913C82.1156 35.0077 84.2078 37.3734 86.1332 39.872C90.6548 45.809 93.7046 52.4023 95.8825 59.533C97.1887 63.8889 97.898 68.3574 97.9511 72.8758C98.1699 86.3841 93.5389 97.9833 84.2021 107.623C82.6834 109.152 81.0426 110.554 79.2962 111.817C78.3713 111.817 77.9338 111.107 77.5526 110.454C76.8583 109.243 76.3963 107.913 76.1902 106.533C75.8621 104.898 75.6465 103.264 75.7527 101.577V100.814C75.6777 100.652 74.8621 25.6574 75.1871 25.2731V25.2731Z" fill="#599636"/>
<path d="M75.1871 25.1075C75.0778 24.8888 74.9684 25.0544 74.859 25.1606C74.9122 26.2543 74.5309 27.2292 73.9341 28.1604C73.2779 29.0853 72.4092 29.7947 71.5374 30.5571C66.694 34.7505 62.8818 39.8158 59.8289 45.481C55.7667 53.1054 53.6731 61.2767 53.0794 69.8792C52.8075 72.9821 54.0605 83.9313 55.0386 87.0904C57.7072 95.4773 62.5006 102.505 68.7095 108.604C70.2344 110.073 71.8655 111.436 73.5529 112.745C74.0435 112.745 74.0966 112.307 74.2091 111.982C74.4242 111.287 74.5881 110.577 74.6997 109.857L75.7933 101.689L75.1871 25.1075Z" fill="#6CAC48"/>
<path d="M77.8557 115.135C77.965 113.885 78.565 112.848 79.2181 111.814C78.5619 111.542 78.0744 111.001 77.6932 110.398C77.3645 109.827 77.0924 109.225 76.8807 108.601C76.1183 106.314 75.9558 103.914 75.7371 101.577V100.161C75.4652 100.38 75.409 102.23 75.409 102.505C75.25 104.975 74.9221 107.432 74.4278 109.857C74.2653 110.839 74.1559 111.817 73.5529 112.689C73.5529 112.798 73.5529 112.907 73.606 113.07C74.5872 115.957 74.8559 118.897 75.0215 121.894V122.988C75.0215 124.294 74.9684 124.019 76.0527 124.456C76.4901 124.619 76.9776 124.675 77.4151 125C77.7432 125 77.7963 124.728 77.7963 124.509L77.6338 122.713V117.701C77.5807 116.826 77.7432 115.957 77.8526 115.138L77.8557 115.135Z" fill="#C2BFBF"/>
</svg>
