<svg width="150" height="150" viewBox="0 0 150 150" fill="none" xmlns="http://www.w3.org/2000/svg">
<path d="M48.5958 60.6395H67.4567V62.1314H50.3247V73.3598H66.435V74.8517H50.3247V87.1795H67.6531V88.6713H48.5958V60.6395ZM69.1463 60.6395H71.1503L80.0306 72.9672L89.1074 60.6395L101.453 44.9805L81.1701 74.2628L91.6222 88.6713H89.5397L80.0306 75.5584L70.4823 88.6713H68.439L78.9697 74.2628L69.1463 60.6395ZM92.3688 62.1314V60.6395H113.862V62.1314H103.96V88.6713H102.231V62.1314H92.3688Z" fill="white"/>
<path d="M25 60.6395H27.1611L56.9621 105.02L44.6468 88.6714L26.8075 62.7596L26.7289 88.6714H25V60.6395Z" fill="white"/>
<path d="M113.688 86.7292C114.046 86.7292 114.306 86.4568 114.306 86.1048C114.306 85.7529 114.046 85.4805 113.688 85.4805C113.335 85.4805 113.07 85.7529 113.07 86.1048C113.07 86.4568 113.335 86.7292 113.688 86.7292ZM115.387 85.0866C115.387 86.1258 116.14 86.8046 117.237 86.8046C118.406 86.8046 119.113 86.1048 119.113 84.8896V80.6113H118.171V84.8854C118.171 85.5601 117.83 85.9205 117.229 85.9205C116.691 85.9205 116.325 85.5852 116.312 85.0866H115.387ZM120.345 85.0321C120.412 86.1132 121.316 86.8046 122.662 86.8046C124.1 86.8046 125 86.0797 125 84.9232C125 84.0138 124.487 83.511 123.242 83.2219L122.574 83.0584C121.783 82.8741 121.463 82.6268 121.463 82.1952C121.463 81.6505 121.96 81.2943 122.704 81.2943C123.41 81.2943 123.898 81.6421 123.987 82.1994H124.903C124.849 81.1812 123.949 80.4646 122.717 80.4646C121.392 80.4646 120.509 81.1812 120.509 82.2581C120.509 83.1464 121.009 83.6744 122.107 83.93L122.889 84.1186C123.692 84.3072 124.045 84.5837 124.045 85.0447C124.045 85.581 123.49 85.9708 122.733 85.9708C121.922 85.9708 121.358 85.6062 121.278 85.0321H120.345Z" fill="white"/>
</svg>
