<svg width="151" height="150" viewBox="0 0 151 150" fill="none" xmlns="http://www.w3.org/2000/svg">
<path d="M75.5001 82.9347C79.8823 82.9347 83.4347 79.3822 83.4347 75C83.4347 70.6179 79.8823 67.0654 75.5001 67.0654C71.1179 67.0654 67.5655 70.6179 67.5655 75C67.5655 79.3822 71.1179 82.9347 75.5001 82.9347Z" fill="#61DAFB"/>
<path d="M75.5 91.2563C99.0141 91.2563 118.076 83.9781 118.076 75C118.076 66.022 99.0141 58.7438 75.5 58.7438C51.986 58.7438 32.9241 66.022 32.9241 75C32.9241 83.9781 51.986 91.2563 75.5 91.2563Z" stroke="#61DAFB" stroke-width="5"/>
<path d="M61.4217 83.1281C73.1787 103.492 89.0128 116.361 96.788 111.872C104.563 107.383 101.335 87.2356 89.5784 66.8719C77.8214 46.5081 61.9873 33.6391 54.2121 38.1281C46.4368 42.6172 49.6647 62.7644 61.4217 83.1281Z" stroke="#61DAFB" stroke-width="5"/>
<path d="M61.4217 66.8718C49.6646 87.2356 46.4368 107.383 54.212 111.872C61.9873 116.361 77.8213 103.492 89.5784 83.1281C101.335 62.7643 104.563 42.6171 96.788 38.1281C89.0127 33.639 73.1787 46.508 61.4217 66.8718Z" stroke="#61DAFB" stroke-width="5"/>
</svg>
