<svg width="150" height="151" viewBox="0 0 150 151" fill="none" xmlns="http://www.w3.org/2000/svg">
<path d="M75 45.5082C61.6663 45.5082 53.3331 52.1732 49.9994 65.5019C55 58.8369 60.8334 56.3385 67.4997 58.0041C71.3036 58.9544 74.0221 61.7142 77.032 64.7679C81.9339 69.7422 87.6072 75.4994 100.001 75.4994C113.333 75.4994 121.667 68.8344 125 55.5044C120.001 62.1694 114.167 64.6691 107.5 63.0035C103.697 62.0531 100.978 59.2933 97.9686 56.2397C93.0668 51.2653 87.3921 45.5082 75 45.5082V45.5082ZM49.9994 75.4994C36.6669 75.4994 28.3325 82.1644 25 95.4943C29.9994 88.8294 35.8328 86.3297 42.5003 87.9965C46.303 88.9481 49.0215 91.7067 52.0314 94.7591C56.9332 99.7334 62.6079 105.492 75 105.492C88.3338 105.492 96.6669 98.8268 100.001 85.4969C95 92.1618 89.1666 94.6615 82.5003 92.9947C78.6964 92.0456 75.9779 89.2845 72.968 86.2321C68.0662 81.2578 62.3928 75.4994 49.9994 75.4994V75.4994Z" fill="#06B6D4"/>
</svg>
